<?xml version="1.0" encoding="UTF-8" standalone="no"?>
<!-- Created with Inkscape (http://www.inkscape.org/) -->

<svg
   xmlns:dc="http://purl.org/dc/elements/1.1/"
   xmlns:cc="http://creativecommons.org/ns#"
   xmlns:rdf="http://www.w3.org/1999/02/22-rdf-syntax-ns#"
   xmlns:svg="http://www.w3.org/2000/svg"
   xmlns="http://www.w3.org/2000/svg"
   xmlns:sodipodi="http://sodipodi.sourceforge.net/DTD/sodipodi-0.dtd"
   xmlns:inkscape="http://www.inkscape.org/namespaces/inkscape"
   width="719.02313"
   height="425.57626"
   id="svg2"
   version="1.1"
   inkscape:version="0.48.4 r9939"
   sodipodi:docname="water_cooling.svg"
   inkscape:export-filename="/tmp/water_cooling.png"
   inkscape:export-xdpi="103.00089"
   inkscape:export-ydpi="103.00089">
  <defs
     id="defs4" />
  <sodipodi:namedview
     id="base"
     pagecolor="#96aee8"
     bordercolor="#000000"
     borderopacity="1"
     inkscape:pageopacity="1"
     inkscape:pageshadow="2"
     inkscape:zoom="0.98994949"
     inkscape:cx="308.32189"
     inkscape:cy="267.20316"
     inkscape:document-units="px"
     inkscape:current-layer="layer1"
     showgrid="false"
     fit-margin-top="10"
     fit-margin-left="10"
     fit-margin-right="10"
     fit-margin-bottom="10"
     inkscape:showpageshadow="true"
     showborder="true"
     borderlayer="false"
     inkscape:window-width="1680"
     inkscape:window-height="996"
     inkscape:window-x="-2"
     inkscape:window-y="-3"
     inkscape:window-maximized="1" />
  <metadata
     id="metadata7">
    <rdf:RDF>
      <cc:Work
         rdf:about="">
        <dc:format>image/svg+xml</dc:format>
        <dc:type
           rdf:resource="http://purl.org/dc/dcmitype/StillImage" />
        <dc:title></dc:title>
      </cc:Work>
    </rdf:RDF>
  </metadata>
  <g
     inkscape:label="Layer 1"
     inkscape:groupmode="layer"
     id="layer1"
     transform="translate(0.90625,-163.02438)">
    <rect
       style="color:#000000;fill:#9a9a9a;fill-opacity:1;fill-rule:nonzero;stroke:none;stroke-width:2;marker:none;visibility:visible;display:inline;overflow:visible;enable-background:accumulate"
       id="rect3868-9"
       width="83.842659"
       height="11.111678"
       x="566.19049"
       y="296.263" />
    <rect
       style="color:#000000;fill:#9a9a9a;fill-opacity:1;fill-rule:nonzero;stroke:none;stroke-width:2;marker:none;visibility:visible;display:inline;overflow:visible;enable-background:accumulate"
       id="rect3868"
       width="83.842659"
       height="11.111678"
       x="-144.45181"
       y="296.76807"
       transform="scale(-1,1)" />
    <path
       style="fill:none;stroke:#6c6c6c;stroke-width:2;stroke-linecap:butt;stroke-linejoin:miter;stroke-miterlimit:4;stroke-opacity:1;stroke-dasharray:none"
       d="m 454.28572,254.50504 c 4.52381,0 9.04762,0 13.57143,0 0.30047,0 4.07323,-0.10624 4.28571,0 0.30117,0.15059 0.41312,0.5637 0.71429,0.71429 0.21296,0.10648 0.54592,-0.16836 0.71428,0 0.16836,0.16836 -0.16836,0.54592 0,0.71428 0.16836,0.16836 0.54593,-0.16836 0.71429,0 0.16836,0.16836 -0.16836,0.54593 0,0.71429 0.16836,0.16836 0.54593,-0.16836 0.71428,0 0.16836,0.16836 -0.16835,0.54593 0,0.71428 0.16836,0.16836 0.54593,-0.16835 0.71429,0 0.16836,0.16836 0,0.4762 0,0.71429 0.2381,0 0.54593,-0.16836 0.71429,0 0.33671,0.33672 -0.33672,1.09185 0,1.42857 0.16835,0.16836 0.54592,-0.16836 0.71428,0 1.47788,1.47788 -2.2584,-0.0578 0.71429,1.42857 0.21296,0.10648 0.54592,-0.16836 0.71428,0 1.47789,1.47789 -2.2584,-0.0578 0.71429,1.42857 0.21296,0.10648 0.54593,-0.16835 0.71428,0 0.16836,0.16836 -0.16835,0.54593 0,0.71429 0.16836,0.16836 0.50133,-0.10648 0.71429,0 0.30117,0.15058 0.39485,0.60781 0.71429,0.71429 0.45175,0.15058 1.00265,-0.21296 1.42857,0 0.21296,0.10648 -0.16836,0.54592 0,0.71428 0.33671,0.33672 1.00265,-0.21296 1.42857,0 0.30117,0.15059 0.41312,0.5637 0.71428,0.71429 0.21296,0.10648 0.4762,0 0.71429,0 0.2381,0 0.47619,0 0.71429,0 1.19047,0 2.38095,0 3.57142,0 4.76191,0 9.52381,0 14.28572,0"
       id="path3757"
       inkscape:connector-curvature="0" />
    <path
       style="fill:none;stroke:#6c6c6c;stroke-width:2;stroke-linecap:butt;stroke-linejoin:miter;stroke-miterlimit:4;stroke-opacity:1;stroke-dasharray:none"
       d="m 262.14285,254.50504 c -4.52381,0 -9.04762,0 -13.57143,0 -0.30047,0 -4.07323,-0.10624 -4.28571,0 -0.30117,0.15059 -0.41312,0.5637 -0.71429,0.71429 -0.21296,0.10648 -0.54592,-0.16836 -0.71428,0 -0.16836,0.16836 0.16836,0.54592 0,0.71428 -0.16836,0.16837 -0.54593,-0.16836 -0.71429,0 -0.16836,0.16837 0.16836,0.54593 0,0.71429 -0.16836,0.16836 -0.54593,-0.16836 -0.71428,0 -0.16836,0.16836 0.16835,0.54593 0,0.71429 -0.16836,0.16836 -0.54593,-0.16836 -0.71429,0 -0.16836,0.16836 0,0.47619 0,0.71428 -0.2381,0 -0.54593,-0.16835 -0.71429,0 -0.33671,0.33672 0.33672,1.09186 0,1.42858 -0.16835,0.16835 -0.54592,-0.16836 -0.71428,0 -1.47788,1.47788 2.2584,-0.0578 -0.71429,1.42857 -0.21296,0.10648 -0.54592,-0.16836 -0.71428,0 -1.47789,1.47788 2.2584,-0.0578 -0.71429,1.42856 -0.21296,0.10648 -0.54593,-0.16835 -0.71428,0 -0.16836,0.16836 0.16835,0.54593 0,0.71429 -0.16836,0.16836 -0.50133,-0.10648 -0.71429,0 -0.30117,0.15058 -0.39485,0.60781 -0.71429,0.71429 -0.45175,0.15058 -1.00265,-0.21296 -1.42857,0 -0.21296,0.10648 0.16836,0.54592 0,0.71428 -0.33671,0.33672 -1.00265,-0.21296 -1.42857,0 -0.30117,0.15059 -0.41312,0.5637 -0.71428,0.71429 -0.21296,0.10648 -0.4762,0 -0.71429,0 -0.2381,0 -0.47619,0 -0.71429,0 -1.19047,0 -2.38095,0 -3.57142,0 -4.76191,0 -9.52381,0 -14.28572,0"
       id="path3757-9"
       inkscape:connector-curvature="0" />
    <rect
       style="fill:#000000;fill-opacity:1;stroke:none"
       id="rect2985"
       width="204.28572"
       height="27.142857"
       x="254.28571"
       y="241.64789" />
    <path
       style="color:#000000;fill:#025800;fill-opacity:1;fill-rule:nonzero;stroke:none;marker:none;visibility:visible;display:inline;overflow:visible;enable-background:accumulate"
       d="m 9.09375,268.46875 0,26.28125 79.8125,0 0,-26.28125 -79.8125,0 z m 104.03125,0 0,26.28125 151.53125,0 0,-26.28125 -151.53125,0 z"
       id="rect3777"
       inkscape:connector-curvature="0" />
    <path
       style="fill:#025800;fill-opacity:1;stroke:none"
       d="m 449.09375,268.46875 0,26.28125 144.875,0 0,-26.28125 -144.875,0 z m 169.125,0 0,26.28125 86.4375,0 0,-26.28125 -86.4375,0 z"
       id="rect3777-0"
       inkscape:connector-curvature="0" />
    <rect
       style="color:#000000;fill:#cf7400;fill-opacity:1;fill-rule:nonzero;stroke:none;stroke-width:2;marker:none;visibility:visible;display:inline;overflow:visible;enable-background:accumulate"
       id="rect3844"
       width="655.58899"
       height="216.17264"
       x="38.385799"
       y="308.88989" />
    <rect
       style="color:#000000;fill:#cf7400;fill-opacity:1;fill-rule:nonzero;stroke:none;stroke-width:2;marker:none;visibility:visible;display:inline;overflow:visible;enable-background:accumulate"
       id="rect3846"
       width="635.38593"
       height="22.223356"
       x="49.497475"
       y="217.97618" />
    <rect
       style="color:#000000;fill:#44a3ce;fill-opacity:1;fill-rule:nonzero;stroke:none;stroke-width:2;marker:none;visibility:visible;display:inline;overflow:visible;enable-background:accumulate"
       id="rect3888"
       width="688.92401"
       height="42.426407"
       x="19.192898"
       y="389.70212" />
    <rect
       style="color:#000000;fill:#686868;fill-opacity:1;fill-rule:nonzero;stroke:none;stroke-width:2;marker:none;visibility:visible;display:inline;overflow:visible;enable-background:accumulate"
       id="rect3848-3"
       width="18.182745"
       height="396.98996"
       x="595.98999"
       y="173.02438" />
    <rect
       style="color:#000000;fill:#686868;fill-opacity:1;fill-rule:nonzero;stroke:none;stroke-width:2;marker:none;visibility:visible;display:inline;overflow:visible;enable-background:accumulate"
       id="rect3848"
       width="18.182745"
       height="396.98996"
       x="91.923882"
       y="181.61069" />
    <rect
       style="color:#000000;fill:#cf7400;fill-opacity:1;fill-rule:nonzero;stroke:none;stroke-width:2;marker:none;visibility:visible;display:inline;overflow:visible;enable-background:accumulate"
       id="rect3890"
       width="174.75639"
       height="37.375645"
       x="268.70059"
       y="270.50409" />
    <rect
       style="color:#000000;fill:#686868;fill-opacity:1;fill-rule:nonzero;stroke:none;stroke-width:2;marker:none;visibility:visible;display:inline;overflow:visible;enable-background:accumulate"
       id="rect3848-4"
       width="18.182745"
       height="89.803864"
       x="344.46201"
       y="271.00919" />
    <rect
       style="color:#000000;fill:#ffffff;fill-opacity:1;fill-rule:nonzero;stroke:none;stroke-width:2;marker:none;visibility:visible;display:inline;overflow:visible;enable-background:accumulate"
       id="rect3910"
       width="174.50385"
       height="3.5355339"
       x="269.20566"
       y="267.97873" />
    <rect
       style="color:#000000;fill:#ffffff;fill-opacity:1;fill-rule:nonzero;stroke:none;stroke-width:2;marker:none;visibility:visible;display:inline;overflow:visible;enable-background:accumulate"
       id="rect3910-9"
       width="174.50385"
       height="3.5355339"
       x="268.82687"
       y="306.61707" />
    <rect
       style="color:#000000;fill:#ffffff;fill-opacity:1;fill-rule:nonzero;stroke:none;stroke-width:2;marker:none;visibility:visible;display:inline;overflow:visible;enable-background:accumulate"
       id="rect3910-0"
       width="174.50385"
       height="3.5355339"
       x="267.31161"
       y="240.45207" />
  </g>
</svg>
